<svg width="1200" height="630" viewBox="0 0 1200 630" fill="none" xmlns="http://www.w3.org/2000/svg">
    <style>
      @import url('https://fonts.googleapis.com/css2?family=Luckiest+Guy&amp;display=swap');
    </style>
    <rect width="1200" height="630" fill="white"/>
    
    <!-- Brush Strokes -->
    <g fill="#0052FF">
        <path d="M235 296 C 363 274, 769 271, 952 297 C 902 305, 574 316, 255 308 L 235 296 Z"/>
        <path d="M249 423 C 377 401, 783 398, 966 424 C 916 432, 588 443, 269 435 L 249 423 Z"/>
        <!-- Splatter -->
        <circle cx="220" cy="305" r="3"/>
        <circle cx="215" cy="310" r="2"/>
        <circle cx="970" cy="290" r="2.5"/>
        <circle cx="975" cy="285" r="1.5"/>
        <circle cx="234" cy="432" r="3"/>
        <circle cx="228" cy="438" r="2"/>
        <circle cx="985" cy="417" r="2.5"/>
        <circle cx="992" cy="419" r="1.5"/>
    </g>

    <!-- Text -->
    <text x="50%" y="365" dominant-baseline="middle" text-anchor="middle" font-family="'Luckiest Guy', cursive" font-size="170" fill="#111827">
        Disrole
    </text>
</svg>
