<svg width="1200" height="630" viewBox="0 0 1200 630" fill="none" xmlns="http://www.w3.org/2000/svg">
  <rect width="1200" height="630" fill="#000000"/>
  <defs>
    <radialGradient id="glow" cx="0" cy="0" r="1" gradientUnits="userSpaceOnUse" gradientTransform="translate(600 315) rotate(90) scale(400 650)">
      <stop stop-color="#0052FF" stop-opacity="0.3"/>
      <stop offset="1" stop-color="#C42FCD" stop-opacity="0"/>
    </radialGradient>
    <filter id="shadow" x="0" y="0" width="1200" height="630" filterUnits="userSpaceOnUse" color-interpolation-filters="sRGB">
        <feFlood flood-opacity="0" result="BackgroundImageFix"/>
        <feBlend mode="normal" in="SourceGraphic" in2="BackgroundImageFix" result="shape"/>
        <feGaussianBlur stdDeviation="10" result="effect1_foregroundBlur"/>
    </filter>
  </defs>
  <rect width="1200" height="630" fill="url(#glow)"/>
  <g transform="translate(280, 80)">
    <g filter="url(#shadow)">
      <path d="M 220 160 v 320 h 110 c 49.68 0 90 -40.32 90 -90 s -40.32 -90 -90 -90 H 220 m 110 0 c 44.2 0 80 -35.8 80 -80 s -35.8 -80 -80 -80 H 220" stroke="#0052FF" stroke-width="45" stroke-linecap="round" stroke-linejoin="round" fill="none" />
    </g>
    <path d="M 220 160 v 320 h 110 c 49.68 0 90 -40.32 90 -90 s -40.32 -90 -90 -90 H 220 m 110 0 c 44.2 0 80 -35.8 80 -80 s -35.8 -80 -80 -80 H 220" stroke="white" stroke-width="40" stroke-linecap="round" stroke-linejoin="round" fill="none" />
  </g>
</svg>
