<svg width="1200" height="630" viewBox="0 0 1200 630" fill="none" xmlns="http://www.w3.org/2000/svg">
    <style>
      @import url('https://fonts.googleapis.com/css2?family=Luckiest+Guy&amp;display=swap');
      @import url('https://fonts.googleapis.com/css2?family=Inter:wght@500;700&amp;display=swap');
    </style>
    <defs>
        <linearGradient id="bg-gradient" x1="0%" y1="0%" x2="100%" y2="100%">
            <stop offset="0%" stop-color="#050719" />
            <stop offset="100%" stop-color="#101222" />
        </linearGradient>
        <filter id="glow" x="-50%" y="-50%" width="200%" height="200%">
            <feGaussianBlur in="SourceGraphic" stdDeviation="15" result="blur"/>
            <feColorMatrix in="blur" mode="matrix" values="1 0 0 0 0  0 1 0 0 0  0 0 1 0 0  0 0 0 0.5 0" result="glow"/>
            <feComposite in="glow" in2="SourceGraphic" operator="over"/>
        </filter>
    </defs>

    <rect width="1200" height="630" fill="url(#bg-gradient)"/>
    
    <!-- Abstract background elements -->
    <g opacity="0.2" filter="url(rgba(0, 0, 0, 0))">
        <circle cx="100" cy="100" r="200" fill="#0052FF" filter="url(#glow)"/>
        <circle cx="1150" cy="580" r="120" fill="#C42FCD" filter="url(#glow)"/>
    </g>

    <!-- Logo Group -->
    <g transform="translate(0, -20)">
        <!-- Brush Strokes -->
        <g fill="#0052FF">
            <path d="M235 296 C 363 274, 769 271, 952 297 C 902 305, 574 316, 255 308 L 235 296 Z"/>
            <path d="M249 423 C 377 401, 783 398, 966 424 C 916 432, 588 443, 269 435 L 249 423 Z"/>
            <!-- Splatter -->
            <circle cx="220" cy="305" r="3"/>
            <circle cx="215" cy="310" r="2"/>
            <circle cx="970" cy="290" r="2.5"/>
            <circle cx="975"cy="285" r="1.5"/>
            <circle cx="234" cy="432" r="3"/>
            <circle cx="228" cy="438" r="2"/>
            <circle cx="985" cy="417" r="2.5"/>
            <circle cx="992" cy="419" r="1.5"/>
        </g>
        <!-- Text -->
        <text x="50%" y="365" dominant-baseline="middle" text-anchor="middle" font-family="'Luckiest Guy', cursive" font-size="170" fill="#FFFFFF">
            Disrole
        </text>
    </g>

    <!-- Tagline -->
    <text x="50%" y="500" dominant-baseline="middle" text-anchor="middle" font-family="'Inter', sans-serif" font-size="36" fill="#F0F4F8" font-weight="700">
        Create ERC20 Tokens on Base Network Instantly
    </text>
</svg>